<?xml version="1.0" encoding="iso-8859-1"?>
<!-- Generator: Adobe Illustrator 18.1.1, SVG Export Plug-In . SVG Version: 6.00 Build 0)  -->
<svg version="1.1" id="Capa_1" xmlns="http://www.w3.org/2000/svg" xmlns:xlink="http://www.w3.org/1999/xlink" x="0px" y="0px"
	 viewBox="0 0 26 26" style="enable-background:new 0 0 26 26;" xml:space="preserve">
<g>
	<path style="fill:#030104;" d="M24.564,10.728c-0.897,1.056-1.521,0.685-2.006,0.267c-0.487-0.421-0.82-1.018,0.07-2.071
		c0.895-1.06,3.291-1.954,3.291-1.954S25.458,9.672,24.564,10.728z"/>
	
	<path style="fill:#030104;" d="M22.944,15.583c-1.202,0.688-1.662,0.128-1.979-0.431c-0.315-0.561-0.426-1.237,0.771-1.925
		c1.201-0.691,3.759-0.721,3.759-0.721S24.145,14.893,22.944,15.583z"/>
	<path style="fill:#030104;" d="M20.428,19.678c-1.366,0.24-1.607-0.443-1.716-1.076c-0.108-0.636,0.015-1.307,1.372-1.55
		c1.367-0.243,3.783,0.597,3.783,0.597S21.786,19.434,20.428,19.678z"/>
	<path style="fill:#030104;" d="M16.792,22.827c-1.409-0.209-1.424-0.937-1.327-1.57c0.104-0.638,0.44-1.234,1.843-1.024
		c1.409,0.211,3.496,1.783,3.496,1.783S18.197,23.037,16.792,22.827z"/>
	<path style="fill:#030104;" d="M12.762,25.197c-1.344-0.477-1.221-1.192-1.001-1.796c0.221-0.606,0.668-1.127,2.005-0.654
		c1.342,0.477,3.088,2.419,3.088,2.419S14.1,25.67,12.762,25.197z"/>
	<path style="fill:#030104;" d="M10.638,23.44c0,0-6.453,2.538-10.479,1.634C-0.157,25.45,0.605,26,0.605,26
		S6.465,26.091,10.638,23.44z"/>
</g>
<g>
</g>
<g>
</g>
<g>
</g>
<g>
</g>
<g>
</g>
<g>
</g>
<g>
</g>
<g>
</g>
<g>
</g>
<g>
</g>
<g>
</g>
<g>
</g>
<g>
</g>
<g>
</g>
<g>
</g>
</svg>
